<svg width="26" height="24" viewBox="0 0 26 24" fill="none" xmlns="http://www.w3.org/2000/svg">
<path opacity="0.2" d="M17.539 2H8.46067C4.51734 2 2.1665 4.17 2.1665 7.81V16.18C2.1665 19.83 4.51734 22 8.46067 22H17.5282C21.4715 22 23.8223 19.83 23.8223 16.19V7.81C23.8332 4.17 21.4823 2 17.539 2Z" fill="#5030E5"/>
<path d="M17.3332 11.25H13.8123V8C13.8123 7.59 13.444 7.25 12.9998 7.25C12.5557 7.25 12.1873 7.59 12.1873 8V11.25H8.6665C8.22234 11.25 7.854 11.59 7.854 12C7.854 12.41 8.22234 12.75 8.6665 12.75H12.1873V16C12.1873 16.41 12.5557 16.75 12.9998 16.75C13.444 16.75 13.8123 16.41 13.8123 16V12.75H17.3332C17.7773 12.75 18.1457 12.41 18.1457 12C18.1457 11.59 17.7773 11.25 17.3332 11.25Z" fill="#5030E5"/>
</svg>
