<svg width="36" height="37" viewBox="0 0 36 37" fill="none" xmlns="http://www.w3.org/2000/svg">
<path d="M34.6635 13.1688C34.0219 12.5947 33.1791 12.2982 32.3195 12.3443C31.4599 12.3904 30.6537 12.7751 30.077 13.4141L19.0407 25.7069C18.9555 25.8029 18.8969 25.92 18.8714 26.0458L17.9657 30.4569C17.9016 30.7628 17.9802 31.0811 18.1794 31.322C18.3782 31.563 18.6757 31.7004 18.9882 31.6954C19.0949 31.6952 19.2013 31.6795 19.3036 31.6488L23.5744 30.2699C23.6979 30.2314 23.8086 30.1609 23.8959 30.0655L34.9144 17.7964C35.5021 17.1528 35.8062 16.3002 35.759 15.4301C35.712 14.5598 35.3171 13.7451 34.6633 13.169L34.6635 13.1688ZM20.2094 26.8228L22.6517 29.0137L19.555 30.0128L20.2094 26.8228ZM33.8226 16.7795L23.7148 28.0207L21.0507 25.6312L31.1637 14.396C31.5989 13.9596 32.228 13.7782 32.8287 13.9159C33.4295 14.0533 33.9168 14.4905 34.1186 15.0726C34.3207 15.6548 34.2088 16.2998 33.8223 16.7797L33.8226 16.7795Z" fill="black"/>
<path d="M27.1734 28.3361C26.7701 28.3361 26.4431 28.6631 26.4431 29.0667V31.5614C26.4431 32.4908 26.0737 33.3826 25.4165 34.0401C24.7589 34.6974 23.8674 35.0667 22.9377 35.0667H4.96044C4.0307 35.0667 3.13919 34.6974 2.48168 34.0401C1.82415 33.3826 1.45479 32.4908 1.45479 31.5614V4.9547C1.45479 4.02496 1.82415 3.13315 2.48168 2.47594C3.13922 1.81841 4.0307 1.44905 4.96044 1.44905H22.9496C23.8793 1.44905 24.7708 1.81841 25.4283 2.47594C26.0859 3.13318 26.4549 4.02496 26.4549 4.9547V14.0984C26.4549 14.5017 26.782 14.8287 27.1855 14.8287C27.5888 14.8287 27.9158 14.5017 27.9158 14.0984V4.9547C27.9141 3.63902 27.3902 2.3779 26.4587 1.44875C25.5275 0.519831 24.2652 -0.0014073 22.9496 2.85383e-06H4.96041C3.64592 2.85383e-06 2.38509 0.52185 1.45506 1.45105C0.525024 2.37998 0.00170703 3.63991 0 4.9547V31.5614C0.00173954 32.8759 0.525039 34.1359 1.45506 35.065C2.38509 35.9939 3.646 36.5158 4.96041 36.5158H22.9496C24.2631 36.514 25.5223 35.9916 26.4512 35.063C27.3801 34.1341 27.9025 32.8748 27.904 31.5614V29.0667C27.904 28.8727 27.8271 28.6872 27.69 28.55C27.5531 28.4132 27.3673 28.3361 27.1737 28.3361L27.1734 28.3361Z" fill="black"/>
<path d="M22.1138 4.65063H5.78938C5.3861 4.65063 5.05908 4.97766 5.05908 5.38093C5.05908 5.78421 5.3861 6.11123 5.78938 6.11123H22.1138C22.5171 6.11123 22.8441 5.78421 22.8441 5.38093C22.8441 4.97766 22.5171 4.65063 22.1138 4.65063Z" fill="black"/>
<path d="M22.1138 9.07935H5.78938C5.3861 9.07935 5.05908 9.40637 5.05908 9.80964C5.05908 10.2132 5.3861 10.5399 5.78938 10.5399H22.1138C22.5171 10.5399 22.8441 10.2132 22.8441 9.80964C22.8441 9.40637 22.5171 9.07935 22.1138 9.07935Z" fill="black"/>
<path d="M22.1138 13.5078H5.78938C5.3861 13.5078 5.05908 13.8348 5.05908 14.2381C5.05908 14.6414 5.3861 14.9684 5.78938 14.9684H22.1138C22.5171 14.9684 22.8441 14.6414 22.8441 14.2381C22.8441 13.8348 22.5171 13.5078 22.1138 13.5078Z" fill="black"/>
</svg>
