<svg width="21" height="14" viewBox="0 0 21 14" fill="none" xmlns="http://www.w3.org/2000/svg">
<path d="M19.2212 4.97907L15.4463 4.39748L13.1459 0.639445C13.0251 0.442742 12.8556 0.280535 12.6538 0.168519C12.452 0.0565022 12.2247 -0.00153218 11.9939 3.07536e-05L2.3528 0.0768477C2.07462 0.079197 1.80408 0.168138 1.57878 0.331312C1.35347 0.494486 1.18458 0.723788 1.09559 0.987357L0 4.23611V11.7056H2.30015C2.47896 12.2868 2.83941 12.7954 3.32857 13.1567C3.81773 13.518 4.40984 13.713 5.01797 13.713C5.62609 13.713 6.2182 13.518 6.70736 13.1567C7.19652 12.7954 7.55697 12.2868 7.73578 11.7056H12.0016C12.1804 12.2868 12.5408 12.7954 13.03 13.1567C13.5191 13.518 14.1112 13.713 14.7194 13.713C15.3275 13.713 15.9196 13.518 16.4088 13.1567C16.8979 12.7954 17.2584 12.2868 17.4372 11.7056H20.0719V5.97095C20.073 5.73098 19.9876 5.49863 19.8313 5.31648C19.6751 5.13432 19.4585 5.01454 19.2212 4.97907ZM8.69781 1.36437L12.0046 1.33803L13.8487 4.35078L8.69781 4.34898V1.36437ZM2.3635 1.41489L7.35968 1.37508V4.34852L1.37496 4.34638L2.3635 1.41489ZM5.01797 12.3746C4.72023 12.3746 4.42918 12.2863 4.18162 12.1209C3.93406 11.9555 3.74111 11.7204 3.62717 11.4453C3.51323 11.1703 3.48342 10.8676 3.5415 10.5756C3.59959 10.2835 3.74296 10.0153 3.95349 9.80477C4.16403 9.59424 4.43226 9.45086 4.72428 9.39278C5.0163 9.33469 5.31898 9.3645 5.59405 9.47844C5.86913 9.59238 6.10424 9.78533 6.26965 10.0329C6.43507 10.2804 6.52336 10.5715 6.52336 10.8692C6.52291 11.2684 6.36417 11.651 6.08195 11.9332C5.79973 12.2154 5.41708 12.3742 5.01797 12.3746ZM14.7194 12.3746C14.4216 12.3746 14.1306 12.2863 13.883 12.1209C13.6355 11.9555 13.4425 11.7204 13.3286 11.4453C13.2146 11.1703 13.1848 10.8676 13.2429 10.5756C13.301 10.2835 13.4444 10.0153 13.6549 9.80477C13.8654 9.59424 14.1337 9.45086 14.4257 9.39278C14.7177 9.33469 15.0204 9.3645 15.2955 9.47844C15.5705 9.59238 15.8056 9.78533 15.9711 10.0329C16.1365 10.2804 16.2248 10.5715 16.2248 10.8692C16.2243 11.2684 16.0656 11.651 15.7833 11.9332C15.5011 12.2154 15.1185 12.3742 14.7194 12.3746ZM18.7337 10.3674H17.5176C17.4001 9.71082 17.0554 9.11646 16.5438 8.68835C16.0322 8.26024 15.3864 8.02566 14.7194 8.02566C14.0523 8.02566 13.4065 8.26024 12.8949 8.68835C12.3834 9.11646 12.0387 9.71082 11.9211 10.3674H7.81623C7.69868 9.71082 7.35396 9.11646 6.8424 8.68835C6.33084 8.26024 5.68503 8.02566 5.01797 8.02566C4.35091 8.02566 3.70509 8.26024 3.19353 8.68835C2.68197 9.11646 2.33725 9.71082 2.2197 10.3674H1.33812V5.68509L15.1595 5.70721L18.7337 6.25789V10.3674Z" fill="white"/>
</svg>
