<svg width="18" height="17" viewBox="0 0 18 17" fill="none" xmlns="http://www.w3.org/2000/svg">
<path d="M8.60568 15.4247C8.11086 15.4247 7.64472 15.1881 7.31484 14.7756L6.23914 13.4231C6.21762 13.3961 6.13157 13.3622 6.09571 13.3555H5.73714C2.74669 13.3555 0.896484 12.5913 0.896484 8.79092V5.40977C0.896484 2.42083 2.56741 0.845215 5.73714 0.845215H11.4742C14.644 0.845215 16.3149 2.42083 16.3149 5.40977V8.79092C16.3149 11.7799 14.644 13.3555 11.4742 13.3555H11.1157C11.0583 13.3555 11.0081 13.3825 10.9722 13.4231L9.89653 14.7756C9.56664 15.1881 9.10051 15.4247 8.60568 15.4247ZM5.73714 1.85956C3.1698 1.85956 1.97219 2.98887 1.97219 5.40977V8.79092C1.97219 11.8475 3.08375 12.3411 5.73714 12.3411H6.09571C6.46145 12.3411 6.87739 12.5372 7.0997 12.8145L8.1754 14.167C8.4264 14.478 8.78497 14.478 9.03596 14.167L10.1117 12.8145C10.3483 12.517 10.7212 12.3411 11.1157 12.3411H11.4742C14.0416 12.3411 15.2392 11.2118 15.2392 8.79092V5.40977C15.2392 2.98887 14.0416 1.85956 11.4742 1.85956H5.73714Z" fill="#787486"/>
<path d="M8.60581 8.11479C8.20421 8.11479 7.88867 7.81049 7.88867 7.43856C7.88867 7.06663 8.21138 6.76233 8.60581 6.76233C9.00023 6.76233 9.32294 7.06663 9.32294 7.43856C9.32294 7.81049 9.0074 8.11479 8.60581 8.11479Z" fill="#787486"/>
<path d="M11.474 8.11479C11.0724 8.11479 10.7568 7.81049 10.7568 7.43856C10.7568 7.06663 11.0795 6.76233 11.474 6.76233C11.8684 6.76233 12.1911 7.06663 12.1911 7.43856C12.1911 7.81049 11.8756 8.11479 11.474 8.11479Z" fill="#787486"/>
<path d="M5.73667 8.11479C5.33507 8.11479 5.01953 7.81049 5.01953 7.43856C5.01953 7.06663 5.34224 6.76233 5.73667 6.76233C6.13109 6.76233 6.4538 7.06663 6.4538 7.43856C6.4538 7.81049 6.13826 8.11479 5.73667 8.11479Z" fill="#787486"/>
</svg>
