<svg width="18" height="17" viewBox="0 0 18 17" fill="none" xmlns="http://www.w3.org/2000/svg">
<path d="M15.4184 7.43862V11.496C15.4184 14.2009 14.7012 14.8772 11.8327 14.8772H4.66136C1.79282 14.8772 1.07568 14.2009 1.07568 11.496V4.73369C1.07568 2.02877 1.79282 1.35254 4.66136 1.35254H5.73706C6.81276 1.35254 7.04942 1.65008 7.45818 2.16402L8.53388 3.51648C8.8064 3.85459 8.96417 4.05746 9.6813 4.05746H11.8327C14.7012 4.05746 15.4184 4.73369 15.4184 7.43862Z" stroke="#787486" stroke-width="1.0757" stroke-miterlimit="10"/>
<path d="M5.7373 1.35254H12.1915C13.6258 1.35254 14.3429 2.02877 14.3429 3.38123V4.31443" stroke="#787486" stroke-width="1.0757" stroke-miterlimit="10" stroke-linecap="round" stroke-linejoin="round"/>
<path d="M10.0398 10.1434H6.4541" stroke="#787486" stroke-width="1.0757" stroke-miterlimit="10" stroke-linecap="round" stroke-linejoin="round"/>
</svg>
