<svg width="15" height="4" viewBox="0 0 15 4" fill="none" xmlns="http://www.w3.org/2000/svg">
<path d="M1.59542 3.15991C1.15536 3.15991 0.778458 3.00508 0.464711 2.6954C0.15504 2.38573 0.00224098 2.01087 0.0063156 1.57081C0.00224098 1.1389 0.15504 0.770142 0.464711 0.464545C0.778458 0.154873 1.15536 3.75688e-05 1.59542 3.75688e-05C2.01103 3.75688e-05 2.37775 0.154873 2.69557 0.464545C3.01747 0.770142 3.18045 1.1389 3.18453 1.57081C3.18045 1.86418 3.10303 2.13107 2.95227 2.37147C2.80559 2.61187 2.61204 2.80338 2.37164 2.94599C2.13531 3.08861 1.87657 3.15991 1.59542 3.15991ZM7.33765 3.15991C6.89759 3.15991 6.52069 3.00508 6.20694 2.6954C5.89727 2.38573 5.74447 2.01087 5.74855 1.57081C5.74447 1.1389 5.89727 0.770142 6.20694 0.464545C6.52069 0.154873 6.89759 3.75688e-05 7.33765 3.75688e-05C7.75326 3.75688e-05 8.11998 0.154873 8.4378 0.464545C8.7597 0.770142 8.92268 1.1389 8.92676 1.57081C8.92268 1.86418 8.84527 2.13107 8.6945 2.37147C8.54782 2.61187 8.35427 2.80338 8.11387 2.94599C7.87754 3.08861 7.6188 3.15991 7.33765 3.15991ZM13.0799 3.15991C12.6398 3.15991 12.2629 3.00508 11.9492 2.6954C11.6395 2.38573 11.4867 2.01087 11.4908 1.57081C11.4867 1.1389 11.6395 0.770142 11.9492 0.464545C12.2629 0.154873 12.6398 3.75688e-05 13.0799 3.75688e-05C13.4955 3.75688e-05 13.8622 0.154873 14.18 0.464545C14.5019 0.770142 14.6649 1.1389 14.669 1.57081C14.6649 1.86418 14.5875 2.13107 14.4367 2.37147C14.29 2.61187 14.0965 2.80338 13.8561 2.94599C13.6198 3.08861 13.361 3.15991 13.0799 3.15991Z" fill="#0D062D"/>
</svg>
